<svg width="110" height="60" viewBox="0 0 110 60" fill="none" xmlns="http://www.w3.org/2000/svg">
<path d="M2 59.5V45M2 45H108M2 45V37.5C2 26 11.8244 22.5 17.5122 22.5H92.4878C98.1756 22.5 108 26 108 37.5V45M108 45V59.5" stroke="white" stroke-width="3"/>
<path d="M24 22V6C24 2.5 26.5 1.50048 29.5 1.5H55.5" stroke="white" stroke-width="3"/>
<path d="M87 22V6C87 2.5 84.5 1.50048 81.5 1.5H55.5" stroke="white" stroke-width="3"/>
<path d="M45 22V15.5C45 13 46 11.5 49 11.5H55" stroke="white" stroke-width="3"/>
<path d="M65 22V15.5C65 13 64 11.5 61 11.5H55" stroke="white" stroke-width="3"/>
</svg>
