<svg width="100" height="100" viewBox="0 0 100 100" fill="none" xmlns="http://www.w3.org/2000/svg">
<path d="M72.9999 73.9998H27.0001C26.448 73.9998 26 73.5518 26 72.9997V64.9999C26 64.4478 26.448 63.9998 27.0001 63.9998H50.2181L55.7182 41.9998H27.0008C26.4487 41.9998 26.0007 41.5518 26.0007 40.9997V27.0001C26.0007 26.448 26.4487 26 27.0008 26H73.0006C73.5507 26 74.0007 26.448 74.0007 27.0001V72.9999C74.0007 73.552 73.5507 74 73.0006 74L72.9999 73.9998ZM28.0004 72H71.9996V28.0007H28.0004V40.0006H56.9998C57.3078 40.0006 57.5978 40.1426 57.7896 40.3846C57.9794 40.6247 58.0437 40.9388 57.9697 41.2428L51.9698 65.2425C51.8597 65.6885 51.4599 66.0006 50.9999 66.0006H28.0004V72.0005L28.0004 72Z" fill="black" stroke="black" stroke-width="1.34573"/>
<path d="M38.0005 42.0049H40.0004V46.005H38.0005V42.0049Z" fill="black" stroke="black" stroke-width="1.34573"/>
<path d="M40.1681 66.0009H37.8321C33.5142 66.0009 30 62.487 30 58.1689V51.0011C30 50.449 30.448 50.001 31.0001 50.001H47.0002C47.5523 50.001 48.0003 50.449 48.0003 51.0011V58.1689C48.0003 62.4867 44.4864 66.0009 40.1683 66.0009H40.1681ZM32.0002 52.0005V58.1685C32.0002 61.3824 34.6162 64.0004 37.8321 64.0004H40.1681C43.3841 64.0004 45.9999 61.3824 45.9999 58.1685V52.0005H32.0002Z" fill="black" stroke="black" stroke-width="1.34573"/>
<path d="M31.9999 60.0079H28.9581C27.3262 60.0079 26 58.6801 26 57.0498V54.9679C26 53.338 27.3279 52.0098 28.9581 52.0098H30.0001V54.0096H28.9581C28.4301 54.0096 28.0002 54.4395 28.0002 54.9676V57.0495C28.0002 57.5795 28.4301 58.0074 28.9581 58.0074H31.9999V60.0079Z" fill="black" stroke="black" stroke-width="1.34573"/>
<path d="M69.0014 69.9974H61.0016C60.4515 69.9974 60.0015 69.5494 60.0015 68.9972V64.9972C60.0015 64.4451 60.4515 63.9971 61.0016 63.9971H69.0014C69.5515 63.9971 70.0015 64.4451 70.0015 64.9972V68.9972C70.0015 69.5494 69.5515 69.9974 69.0014 69.9974ZM62.0013 67.9975H68.0013V65.9976H62.0013V67.9975Z" fill="black" stroke="black" stroke-width="1.34573"/>
</svg>
