<svg width="100" height="100" viewBox="0 0 100 100" fill="none" xmlns="http://www.w3.org/2000/svg">
<path d="M46.6038 63V58.26C46.6038 57.1554 45.7083 56.26 44.6038 56.26H40C38.8954 56.26 38 55.3646 38 54.26V51.82C38 50.7154 38.8954 49.82 40 49.82H44.6038C45.7083 49.82 46.6038 48.9246 46.6038 47.82V44C46.6038 42.8954 47.4992 42 48.6038 42H50.9434C52.048 42 52.9434 42.8954 52.9434 44V47.82C52.9434 48.9246 53.8388 49.82 54.9434 49.82H60C61.1046 49.82 62 50.7154 62 51.82V54.26C62 55.3646 61.1046 56.26 60 56.26H54.9434C53.8388 56.26 52.9434 57.1554 52.9434 58.26V63C52.9434 64.1046 52.048 65 50.9434 65H48.6038C47.4992 65 46.6038 64.1046 46.6038 63Z" stroke="black" stroke-width="3" stroke-linecap="round" stroke-linejoin="round"/>
<path d="M41 34V30C41 28.3431 42.3431 27 44 27H56C57.6569 27 59 28.3431 59 30V34" stroke="black" stroke-width="3" stroke-linecap="round" stroke-linejoin="round"/>
<rect x="21.5" y="34.5" width="58" height="37" rx="4.5" stroke="black" stroke-width="3"/>
</svg>
