<svg width="100" height="100" viewBox="0 0 100 100" fill="none" xmlns="http://www.w3.org/2000/svg">
<path d="M30.6597 40.9757C30.6597 36.1561 33.8866 35.3337 35.5 35.525C39.3722 35.525 40.1505 39.1588 40.0556 40.9757C40.0556 44.1889 37.0185 44.9922 35.5 44.9922V48.7217M35.5 48.7217L18.1319 57.0411C12.7196 59.5978 12.1527 64.5 19.2708 64.5C24.9653 64.5 32.463 64.5 35.5 64.5H51.7292C58.8473 64.5 58.2804 59.5978 52.8681 57.0411L35.5 48.7217Z" stroke="black" stroke-width="3" stroke-linecap="square" stroke-linejoin="round"/>
<path fill-rule="evenodd" clip-rule="evenodd" d="M59.285 40.9754C59.285 38.9265 59.9516 37.9978 60.5209 37.5551C61.155 37.062 61.9468 36.9548 62.4487 37.0143C62.5073 37.0212 62.5663 37.0247 62.6253 37.0247C63.9846 37.0247 64.6764 37.6113 65.0973 38.3282C65.5754 39.1425 65.7198 40.1917 65.6829 40.8972C65.6816 40.9232 65.6809 40.9493 65.6809 40.9754C65.6809 42.0089 65.2371 42.5614 64.6686 42.9223C64.0194 43.3344 63.1796 43.4919 62.6253 43.4919C61.7969 43.4919 61.1253 44.1635 61.1253 44.9919V47.7767L47.3262 54.3866L50.7983 56.0498L62.6253 50.3846L79.3454 58.3937L79.3527 58.3972C80.557 58.966 81.4231 59.6345 81.9615 60.2619C82.5135 60.9049 82.6366 61.3966 82.6245 61.6597C82.6161 61.8406 82.5421 62.108 82.0453 62.3955C81.4961 62.7133 80.4912 62.9997 78.8545 62.9997H62.6253H62.6075H62.5895H62.5715H62.5533H62.5351H62.5167H62.4983H62.4797H62.4611H62.4423H62.4235H62.4045H62.3855H62.3663H62.3471H62.3277H62.3083H62.2887H62.2691H62.2494H62.2295H62.2096H62.1896H62.1695H62.1493H62.129H62.1086H62.0881H62.0675H62.0468H62.026H62.0051H61.9842H61.9631H61.942H61.9207H61.8994H61.8779H61.8564H61.8348H61.8131H61.7913H61.7694H61.7475H61.7254H61.7033H61.681H61.6587H61.6363H61.6138H61.5912H61.5685H61.5457H61.5229H61.4999H61.4769H61.4538H61.4306H61.4073H61.3839H61.3605H61.3369H61.3133H61.2896H61.2658H61.2419H61.2179H61.1939H61.1697H61.1455H61.1212H61.0969H61.0724H61.0478H61.0232H60.9985H60.9737H60.9489H60.9239H60.8989H60.8738H60.8486H60.8233H60.798H60.7726H60.7471H60.7215H60.6958H60.6701H60.6443H60.6184H60.5924H60.5664H60.5403H60.5141H60.4878H60.4615H60.435H60.4086H60.382H60.3553H60.3286H60.3018H60.275H60.248H60.221H60.194H60.1668H60.1396H60.1123H60.0849H60.0575H60.03H60.0024H59.9747H59.947H59.9192H59.8914H59.8634H59.8354H59.8074H59.7793H59.751H59.7228H59.6944H59.666H59.6376H59.609H59.5804H59.5518H59.523H59.4942H59.4654H59.4364H59.4074H59.3784H59.3493H59.3201H59.2908H59.2615H59.2321H59.2027H59.1732H59.1436H59.114H59.0843H59.0546H59.0248H58.9949H58.965H58.935H58.9049H58.8748H58.8447H58.8144H58.7841H58.7538H58.7234H58.6929H58.6624H58.6318H58.6012H58.5705H58.5398H58.509H58.4781H58.4472H58.4162H58.3852H58.3541H58.323H58.2918H58.2606H58.2293H58.1979H58.1665H58.1351H58.1036H58.072H58.0404H58.0087H57.977H57.9453H57.9134H57.8816H57.8497H57.8177H57.7857H57.7536H57.7215H57.6893H57.6571H57.6249H57.5926H57.5602H57.5278H57.4953H57.4628H57.4303H57.3977H57.3651H57.3324H57.2997H57.2669H57.2341H57.2012H57.1683H57.1353H57.1024H57.0693H57.0362H57.0031H56.9699H56.9367H56.9035H56.8702H56.8368H56.8035H56.77H56.7366H56.7031H56.6695H56.636H56.6023H56.5687H56.535H56.5082C55.7812 63.8952 54.2291 64.5 51.729 64.5H41C41.2135 64.6805 41.4486 64.845 41.7029 64.9921C42.8803 65.6734 44.4737 65.9997 46.3961 65.9997H46.4295H46.4629H46.4964H46.5299H46.5635H46.597H46.6307H46.6643H46.698H46.7318H46.7656H46.7994H46.8333H46.8672H46.9011H46.9351H46.9691H47.0031H47.0372H47.0713H47.1055H47.1397H47.1739H47.2081H47.2424H47.2768H47.3111H47.3455H47.3799H47.4144H47.4489H47.4834H47.518H47.5526H47.5872H47.6219H47.6565H47.6913H47.726H47.7608H47.7956H47.8304H47.8653H47.9002H47.9351H47.9701H48.0051H48.0401H48.0751H48.1102H48.1453H48.1804H48.2155H48.2507H48.2859H48.3211H48.3564H48.3917H48.427H48.4623H48.4976H48.533H48.5684H48.6038H48.6393H48.6747H48.7102H48.7457H48.7813H48.8168H48.8524H48.888H48.9236H48.9593H48.995H49.0306H49.0663H49.1021H49.1378H49.1736H49.2093H49.2451H49.281H49.3168H49.3527H49.3885H49.4244H49.4603H49.4962H49.5322H49.5681H49.6041H49.6401H49.6761H49.7121H49.7481H49.7842H49.8202H49.8563H49.8924H49.9285H49.9646H50.0007H50.0369H50.073H50.1092H50.1454H50.1816H50.2177H50.254H50.2902H50.3264H50.3626H50.3989H50.4351H50.4714H50.5077H50.544H50.5802H50.6165H50.6529H50.6892H50.7255H50.7618H50.7982H50.8345H50.8708H50.9072H50.9435H50.9799H51.0163H51.0527H51.089H51.1254H51.1618H51.1982H51.2346H51.271H51.3074H51.3438H51.3802H51.4166H51.453H51.4894H51.5258H51.5622H51.5986H51.635H51.6714H51.7078H51.7442H51.7806H51.817H51.8534H51.8898H51.9262H51.9626H51.999H52.0354H52.0718H52.1082H52.1446H52.1809H52.2173H52.2537H52.29H52.3264H52.3627H52.3991H52.4354H52.4718H52.5081H52.5444H52.5807H52.617H52.6533H52.6896H52.7259H52.7622H52.7984H52.8347H52.8709H52.9072H52.9434H52.9796H53.0158H53.052H53.0882H53.1244H53.1605H53.1967H53.2328H53.2689H53.305H53.3411H53.3772H53.4133H53.4493H53.4854H53.5214H53.5574H53.5934H53.6294H53.6654H53.7013H53.7373H53.7732H53.8091H53.845H53.8808H53.9167H53.9525H53.9883H54.0241H54.0599H54.0957H54.1314H54.1671H54.2028H54.2385H54.2742H54.3098H54.3454H54.381H54.4166H54.4521H54.4877H54.5232H54.5587H54.5941H54.6296H54.665H54.7004H54.7357H54.7711H54.8064H54.8417H54.877H54.9122H54.9474H54.9826H55.0178H55.0529H55.0881H55.1231H55.1582H55.1932H55.2282H55.2632H55.2982H55.3331H55.368H55.4028H55.4377H55.4725H55.5072H55.542H55.5767H55.6114H55.646H55.6806H55.7152H55.7498H55.7843H55.8188H55.8532H55.8877H55.922H55.9564H55.9907H56.025H56.0593H56.0935H56.1277H56.1618H56.1959H56.23H56.264H56.298H56.332H56.3659H56.3998H56.4337H56.4675H56.5012H56.535H56.5687H56.6023H56.636H56.6695H56.7031H56.7366H56.77H56.8035H56.8368H56.8702H56.9035H56.9367H56.9699H57.0031H57.0362H57.0693H57.1024H57.1353H57.1683H57.2012H57.2341H57.2669H57.2997H57.3324H57.3651H57.3977H57.4303H57.4628H57.4953H57.5278H57.5602H57.5926H57.6249H57.6571H57.6893H57.7215H57.7536H57.7857H57.8177H57.8497H57.8816H57.9134H57.9453H57.977H58.0087H58.0404H58.072H58.1036H58.1351H58.1665H58.1979H58.2293H58.2606H58.2918H58.323H58.3541H58.3852H58.4162H58.4472H58.4781H58.509H58.5398H58.5705H58.6012H58.6318H58.6624H58.6929H58.7234H58.7538H58.7841H58.8144H58.8447H58.8748H58.9049H58.935H58.965H58.9949H59.0248H59.0546H59.0843H59.114H59.1436H59.1732H59.2027H59.2321H59.2615H59.2908H59.3201H59.3493H59.3784H59.4074H59.4364H59.4654H59.4942H59.523H59.5518H59.5804H59.609H59.6376H59.666H59.6944H59.7228H59.751H59.7793H59.8074H59.8354H59.8634H59.8914H59.9192H59.947H59.9747H60.0024H60.03H60.0575H60.0849H60.1123H60.1396H60.1668H60.194H60.221H60.248H60.275H60.3018H60.3286H60.3553H60.382H60.4086H60.435H60.4615H60.4878H60.5141H60.5403H60.5664H60.5924H60.6184H60.6443H60.6701H60.6958H60.7215H60.7471H60.7726H60.798H60.8233H60.8486H60.8738H60.8989H60.9239H60.9489H60.9737H60.9985H61.0232H61.0478H61.0724H61.0969H61.1212H61.1455H61.1697H61.1939H61.2179H61.2419H61.2658H61.2896H61.3133H61.3369H61.3605H61.3839H61.4073H61.4306H61.4538H61.4769H61.4999H61.5229H61.5457H61.5685H61.5912H61.6138H61.6363H61.6587H61.681H61.7033H61.7254H61.7475H61.7694H61.7913H61.8131H61.8348H61.8564H61.8779H61.8994H61.9207H61.942H61.9631H61.9842H62.0051H62.026H62.0468H62.0675H62.0881H62.1086H62.129H62.1493H62.1695H62.1896H62.2096H62.2295H62.2494H62.2691H62.2887H62.3083H62.3277H62.3471H62.3663H62.3855H62.4045H62.4235H62.4423H62.4611H62.4797H62.4983H62.5167H62.5351H62.5533H62.5715H62.5895H62.6075H62.6253H78.8545C80.7769 65.9997 82.3704 65.6734 83.5478 64.9921C84.7775 64.2806 85.5581 63.1626 85.6213 61.7984C85.6806 60.5164 85.0921 59.3031 84.238 58.308C83.3711 57.2979 82.138 56.3955 80.6378 55.6863L80.6341 55.6846L64.1253 47.7767V46.3224C64.8245 46.1687 65.5799 45.8972 66.2765 45.455C67.5981 44.616 68.668 43.1726 68.6808 41.0145C68.7322 39.9031 68.5297 38.2491 67.6843 36.8092C66.7821 35.2726 65.1752 34.0526 62.7104 34.0252C61.6023 33.9153 60.0246 34.1408 58.6794 35.1869C57.2319 36.3124 56.285 38.2047 56.285 40.9754V42.4754H59.285V40.9754Z" fill="black"/>
<path d="M16 40L85 40" stroke="black" stroke-width="3" stroke-linecap="round" stroke-linejoin="round"/>
</svg>
