<svg width="100" height="100" viewBox="0 0 100 100" fill="none" xmlns="http://www.w3.org/2000/svg">
<rect x="19.5" y="29.5" width="62" height="37" rx="1.5" stroke="black" stroke-width="3"/>
<path d="M24.5 66.5V68.5C24.5 70.1569 25.8431 71.5 27.5 71.5H28.5C30.1569 71.5 31.5 70.1569 31.5 68.5V66.5" stroke="black" stroke-width="3" stroke-linecap="round"/>
<path d="M70 66.5V68.5C70 70.1569 71.3431 71.5 73 71.5H74C75.6569 71.5 77 70.1569 77 68.5V66.5" stroke="black" stroke-width="3" stroke-linecap="round"/>
<path d="M66 30V66" stroke="black" stroke-width="3" stroke-linecap="round"/>
<rect x="25.5" y="35.5" width="35" height="25" rx="1.5" stroke="black" stroke-width="3"/>
<rect x="69" y="33" width="9" height="3" fill="black"/>
<rect x="70" y="38" width="3" height="3" fill="black"/>
<rect x="74" y="38" width="3" height="3" fill="black"/>
<rect x="70" y="42" width="3" height="3" fill="black"/>
<rect x="74" y="42" width="3" height="3" fill="black"/>
<rect x="70" y="46" width="3" height="3" fill="black"/>
<rect x="74" y="46" width="3" height="3" fill="black"/>
<rect x="70" y="50" width="3" height="3" fill="black"/>
<rect x="74" y="50" width="3" height="3" fill="black"/>
<rect x="70" y="54" width="3" height="3" fill="black"/>
<rect x="74" y="54" width="3" height="3" fill="black"/>
</svg>
