<svg width="100" height="100" viewBox="0 0 100 100" fill="none" xmlns="http://www.w3.org/2000/svg">
<path d="M73 84H28C27.4477 84 27 83.5523 27 83V55C27 54.4477 27.4477 54 28 54H73" stroke="black" stroke-width="3" stroke-linecap="round"/>
<path d="M73 54V84" stroke="black" stroke-width="3" stroke-linecap="round"/>
<circle cx="49.5" cy="60" r="1" stroke="black" stroke-width="3"/>
<circle cx="57" cy="60" r="1" stroke="black" stroke-width="3"/>
<circle cx="42" cy="60" r="1" stroke="black" stroke-width="3"/>
<path d="M27 66H72" stroke="black" stroke-width="3" stroke-linecap="round"/>
<path d="M32 51L44 51" stroke="black" stroke-width="3" stroke-linecap="square"/>
<path d="M55 51L68 51" stroke="black" stroke-width="3" stroke-linecap="square"/>
<path d="M53.5 22V22.7517L54.1021 23.2016L69.5 34.707V41.5H29.5V34.707L44.8979 23.2016L45.5 22.7517V22V18.5H53.5V22Z" stroke="black" stroke-width="3"/>
<path d="M31 35H68" stroke="black" stroke-width="3" stroke-linecap="round"/>
</svg>
