<svg width="100" height="100" viewBox="0 0 100 100" fill="none" xmlns="http://www.w3.org/2000/svg">
<path d="M26.5 47C26.5 41.201 31.201 36.5 37 36.5H63C68.799 36.5 73.5 41.201 73.5 47V61C73.5 61.8284 72.8284 62.5 72 62.5H28C27.1716 62.5 26.5 61.8284 26.5 61V47Z" stroke="black" stroke-width="3"/>
<path d="M32 56H68" stroke="black" stroke-width="3"/>
<path d="M31 64V64C31 65.1046 31.8954 66 33 66H34C35.1046 66 36 65.1046 36 64V64" stroke="black" stroke-width="3"/>
<path d="M64 64V64C64 65.1046 64.8954 66 66 66H67C68.1046 66 69 65.1046 69 64V64" stroke="black" stroke-width="3"/>
<path d="M73.5 45.5H76C76.8284 45.5 77.5 46.1716 77.5 47V48C77.5 48.8284 76.8284 49.5 76 49.5H73.5V45.5Z" stroke="black" stroke-width="3"/>
<path d="M26.5 45.5H24C23.1716 45.5 22.5 46.1716 22.5 47V48C22.5 48.8284 23.1716 49.5 24 49.5H26.5V45.5Z" stroke="black" stroke-width="3"/>
</svg>
