<svg width="100" height="100" viewBox="0 0 100 100" fill="none" xmlns="http://www.w3.org/2000/svg">
<circle cx="39.5772" cy="60.79" r="18" transform="rotate(-45 39.5772 60.79)" stroke="black" stroke-width="3"/>
<circle cx="39.5774" cy="60.79" r="13" transform="rotate(-45 39.5774 60.79)" stroke="black" stroke-width="3"/>
<path d="M54.0728 43.4656L70.6898 26.8486M54.0728 43.4656L56.9013 46.2941M54.0728 43.4656L49.1231 44.8798M70.6898 26.8486L70.3363 26.4951C69.9458 26.1045 69.9458 25.4714 70.3363 25.0809L71.3969 24.0202C71.7875 23.6297 72.4206 23.6297 72.8112 24.0202L76.3467 27.5557C76.7372 27.9463 76.7372 28.5794 76.3467 28.9699L75.286 30.0306C74.8955 30.4211 74.2623 30.4211 73.8718 30.0306L73.5183 29.677M70.6898 26.8486L73.5183 29.677M73.5183 29.677L56.9013 46.2941M56.9013 46.2941L55.487 51.9509" stroke="black" stroke-width="2" stroke-linecap="round"/>
</svg>
