<svg width="100" height="100" viewBox="0 0 100 100" fill="none" xmlns="http://www.w3.org/2000/svg">
<path d="M35.5339 69.6753L39.1962 73.6753C39.3856 73.8822 39.6533 74 39.9338 74H75.0662C75.3468 74 75.6144 73.8822 75.8038 73.6753L79.4661 69.6753C80.0535 69.0337 79.5984 68 78.7286 68H36.2714C35.4016 68 34.9465 69.0337 35.5339 69.6753Z" stroke="black" stroke-width="3" stroke-linecap="round"/>
<path d="M35.5339 63.6753L39.1962 67.6753C39.3856 67.8822 39.6533 68 39.9338 68H75.0662C75.3468 68 75.6144 67.8822 75.8038 67.6753L79.4661 63.6753C80.0535 63.0337 79.5984 62 78.7286 62H36.2714C35.4016 62 34.9465 63.0337 35.5339 63.6753Z" stroke="black" stroke-width="3" stroke-linecap="round"/>
<path d="M35.5339 57.6753L39.1962 61.6753C39.3856 61.8822 39.6533 62 39.9338 62H75.0662C75.3468 62 75.6144 61.8822 75.8038 61.6753L79.4661 57.6753C80.0535 57.0337 79.5984 56 78.7286 56H36.2714C35.4016 56 34.9465 57.0337 35.5339 57.6753Z" stroke="black" stroke-width="3" stroke-linecap="round"/>
<path fill-rule="evenodd" clip-rule="evenodd" d="M65.5283 55C65.8374 53.5488 66 52.0434 66 50.5C66 38.6259 56.3741 29 44.5 29C32.6259 29 23 38.6259 23 50.5C23 59.9294 29.0702 67.941 37.516 70.8403L39.1962 72.6753C39.3856 72.8822 39.6532 73 39.9337 73H54.2111C51.2336 74.2869 47.9501 75 44.5 75C30.969 75 20 64.031 20 50.5C20 36.969 30.969 26 44.5 26C58.031 26 69 36.969 69 50.5C69 52.0372 68.8584 53.5413 68.5876 55H65.5283ZM61.416 55C61.797 53.5641 62 52.0558 62 50.5C62 40.835 54.165 33 44.5 33C34.835 33 27 40.835 27 50.5C27 58.1152 31.864 64.5943 38.6547 67H39.9337C39.6532 67 39.3856 66.8822 39.1962 66.6753L35.5338 62.6753C35.2742 62.3917 35.2182 62.0315 35.3118 61.7178C32.069 59.0586 30 55.0209 30 50.5C30 42.4919 36.4919 36 44.5 36C52.5081 36 59 42.4919 59 50.5C59 52.0709 58.7502 53.5834 58.2882 55H61.416Z" fill="black"/>
</svg>
