<svg width="100" height="100" viewBox="0 0 100 100" fill="none" xmlns="http://www.w3.org/2000/svg">
<path d="M42.1654 70.5046L43.9187 73.5046C44.098 73.8114 44.4267 74 44.782 74H62.7902C63.1456 74 63.4743 73.8114 63.6536 73.5046L65.4068 70.5046C65.7964 69.8379 65.3156 69 64.5435 69H43.0288C42.2566 69 41.7758 69.8379 42.1654 70.5046Z" stroke="black" stroke-width="3" stroke-linecap="round"/>
<path d="M42.1654 64.5046L43.9187 67.5046C44.098 67.8114 44.4267 68 44.782 68H62.7902C63.1456 68 63.4743 67.8114 63.6536 67.5046L65.4068 64.5046C65.7964 63.8379 65.3156 63 64.5435 63H43.0288C42.2566 63 41.7758 63.8379 42.1654 64.5046Z" stroke="black" stroke-width="3" stroke-linecap="round"/>
<path fill-rule="evenodd" clip-rule="evenodd" d="M56.4456 62.8242C56.6367 62.0371 56.738 61.2149 56.738 60.369C56.738 54.6424 52.0957 50 46.369 50C40.6424 50 36 54.6424 36 60.369C36 64.5667 38.4944 68.1818 42.0818 69.813C41.8429 70.1708 41.8325 70.6755 42.1735 71.0479L43.34 72.322C43.5295 72.5288 43.7971 72.6467 44.0776 72.6467H51.6682C50.0434 73.3489 48.2516 73.738 46.369 73.738C38.9855 73.738 33 67.7525 33 60.369C33 52.9855 38.9855 47 46.369 47C53.7525 47 59.738 52.9855 59.738 60.369C59.738 61.2077 59.6608 62.0283 59.5131 62.8242H56.4456ZM54.6783 62.8242C54.8879 62.0855 55 61.3058 55 60.5C55 55.8056 51.1944 52 46.5 52C41.8056 52 38 55.8056 38 60.5C38 63.6504 39.7139 66.4005 42.2602 67.8687L42.1735 67.7741C41.5861 67.1326 42.0413 66.0988 42.9111 66.0988H52.8957C52.8959 66.0986 52.896 66.0984 52.8962 66.0983H44.0776C43.7971 66.0983 43.5295 65.9804 43.34 65.7736L42.1735 64.4995C41.9238 64.2268 41.8625 63.8831 41.9414 63.5782C41.3471 62.6998 41 61.6404 41 60.5C41 57.4624 43.4624 55 46.5 55C49.5376 55 52 57.4624 52 60.5C52 61.3306 51.8159 62.1182 51.4862 62.8242H54.6783ZM55.0125 66.0988C55.0126 66.0986 55.0127 66.0984 55.0128 66.0983H58.4516C58.4516 66.0984 58.4515 66.0986 58.4514 66.0988H55.0125Z" fill="black"/>
<rect x="26.5" y="19.5" width="47" height="58" rx="1.5" stroke="black" stroke-width="3" stroke-linejoin="round"/>
<path d="M26 30H73" stroke="black" stroke-width="3"/>
<path d="M26 35H73" stroke="black" stroke-width="3"/>
<path d="M32 24V26" stroke="black" stroke-width="3" stroke-linecap="round" stroke-linejoin="round"/>
<path d="M36 24V26" stroke="black" stroke-width="3" stroke-linecap="round" stroke-linejoin="round"/>
<path d="M40 24V26" stroke="black" stroke-width="3" stroke-linecap="round" stroke-linejoin="round"/>
<path d="M60 24V26" stroke="black" stroke-width="3" stroke-linecap="round" stroke-linejoin="round"/>
<path d="M56 20L56 30" stroke="black" stroke-width="3" stroke-linecap="round" stroke-linejoin="round"/>
<path d="M44 20L44 30" stroke="black" stroke-width="3" stroke-linecap="round" stroke-linejoin="round"/>
<path d="M64 24V26" stroke="black" stroke-width="3" stroke-linecap="round" stroke-linejoin="round"/>
<path d="M68 24V26" stroke="black" stroke-width="3" stroke-linecap="round" stroke-linejoin="round"/>
<path d="M32 79V81C32 81.5523 32.4477 82 33 82H38C38.5523 82 39 81.5523 39 81V79" stroke="black" stroke-width="3" stroke-linecap="round"/>
<path d="M61 79V81C61 81.5523 61.4477 82 62 82H67C67.5523 82 68 81.5523 68 81V79" stroke="black" stroke-width="3" stroke-linecap="round"/>
</svg>
