<svg width="100" height="100" viewBox="0 0 100 100" fill="none" xmlns="http://www.w3.org/2000/svg">
<path fill-rule="evenodd" clip-rule="evenodd" d="M51.1041 25.371C50.8324 25.6057 50.4734 26.0917 50.4734 27.18V43.4074C49.507 43.4889 48.4928 43.5007 47.4734 43.4619V32.5H47H42.5C41.6716 32.5 41 31.8284 41 31C41 30.1716 41.6716 29.5 42.5 29.5H47H47.4734V27.18C47.4734 25.3243 48.1366 23.9703 49.1427 23.101C50.0946 22.2786 51.2262 22 52.0401 22H75.3467C77.7677 22 79.6636 22.9522 80.9227 24.5134C82.0542 25.9165 82.5898 27.706 82.6643 29.5H85.5C86.3284 29.5 87 30.1716 87 31C87 31.8284 86.3284 32.5 85.5 32.5H74.7001V55.3936V56.04H79.6734V42.36V34.2333C79.6734 33.4049 80.345 32.7333 81.1734 32.7333C82.0018 32.7333 82.6734 33.4049 82.6734 34.2333V42.36V57.54C82.6734 58.3684 82.0018 59.04 81.1734 59.04H74.7001V60.2998V65.2067C74.7001 65.8556 74.5177 66.7956 73.9267 67.6164C73.2806 68.5138 72.2169 69.16 70.7467 69.16H58.7102C58.9794 68.1122 59.199 67.1117 59.3757 66.16H70.7467C71.0232 66.16 71.1822 66.104 71.2704 66.0586C71.3597 66.0125 71.4305 65.9491 71.4921 65.8635C71.6371 65.6622 71.7001 65.3755 71.7001 65.2067V61.7998H59.9332C60.0058 60.697 60.0154 59.6956 59.9804 58.7998H71.7001V57.54V56.8936H59.825C59.6519 55.5467 59.3752 54.572 59.1112 53.9958C59.1023 53.9617 59.0936 53.9276 59.085 53.8936H71.7001V31.78C71.7001 30.484 72.4858 29.6418 73.1813 29.1848C73.8574 28.7405 74.618 28.5289 75.1346 28.4551C75.8763 28.3491 76.5687 28.8051 76.781 29.5H79.6608C79.5886 28.2504 79.2082 27.1664 78.5874 26.3966C77.9298 25.5811 76.9124 25 75.3467 25H52.0401C51.8317 25 51.43 25.0894 51.1041 25.371Z" fill="black"/>
<path d="M23.1845 47.7813C24.012 46.9851 25.3563 45.9464 27.0615 44.9966M27.0615 44.9966C30.1497 43.2764 34.4215 41.8476 38.9509 42.6782C42.6556 43.663 51.0471 45.0417 54.9758 42.6782C57.3881 42.1411 61.5925 42.4096 59.1112 47.7813C58.7616 48.6766 58.2722 51.2728 59.1112 54.4959C59.9727 56.3759 60.9692 62.4997 58.0625 71.9538M27.0615 44.9966C21.6854 43.1419 19.6521 42.32 19.3075 42.1409C15.4305 38.1122 15.172 45.9014 15.9474 47.7813C16.5678 49.2853 15.689 56.2864 15.1721 59.599C14.5051 63.3415 15.8819 66.4655 17.4982 68.5962M20.0829 71.1481C19.3491 70.6397 18.3874 69.7683 17.4982 68.5962M17.4982 68.5962C14.1898 77.9432 15.7751 79.0266 16.9813 78.3999C21.3235 76.0363 30.8523 76.6988 35.0739 77.3255C39.2093 78.185 44.3786 77.6837 46.4464 77.3255C49.5479 76.0363 53.7696 77.1465 55.4927 77.8627C60.662 81.0857 60.0589 76.6988 59.1112 74.1025C58.7241 73.3427 58.375 72.6238 58.0625 71.9538M58.0625 71.9538C56.8729 69.4031 56.2143 67.5598 56.0096 66.8507L58.0625 71.9538Z" stroke="black" stroke-width="3" stroke-linecap="square" stroke-linejoin="round"/>
</svg>
