<svg width="100" height="100" viewBox="0 0 100 100" fill="none" xmlns="http://www.w3.org/2000/svg">
<rect x="62.2598" y="31.3398" width="15.24" height="4.6" rx="2.3" stroke="black" stroke-width="3"/>
<path d="M23.5 33.6398C23.5 32.3696 24.5297 31.3398 25.8 31.3398H31.14V35.9398H25.8C24.5297 35.9398 23.5 34.9101 23.5 33.6398Z" stroke="black" stroke-width="3"/>
<path d="M71.7799 30.98C71.7799 26.8 69.4999 23 64.5599 23H35.6799C34.4132 23 31.8799 23.912 31.8799 27.56V73.92C31.8799 76.96 34.4132 77.72 35.6799 77.72H58.8599C61.2919 77.72 61.8999 75.6933 61.8999 74.68V65.18M61.8999 65.18H71.7799V46.37V36.3M61.8999 65.18V33.26C61.8999 31.74 63.6732 31.1067 64.5599 30.98" stroke="black" stroke-width="3" stroke-linecap="round" stroke-linejoin="round"/>
<path d="M61.8999 68.5996H31.8799" stroke="black" stroke-width="3" stroke-linecap="round" stroke-linejoin="round"/>
<path d="M61.8999 62.5205H31.8799" stroke="black" stroke-width="3" stroke-linecap="round" stroke-linejoin="round"/>
</svg>
