<svg width="100" height="100" viewBox="0 0 100 100" fill="none" xmlns="http://www.w3.org/2000/svg">
<path d="M50.4674 35.586C42.371 35.6559 35.3682 38.3619 29.5219 43.812C29.2934 44.0246 29.0683 44.2226 28.7309 44.1886C28.4154 44.157 28.1639 43.9982 28.0575 43.7124C27.9363 43.384 28.0048 43.083 28.2807 42.8169C29.52 41.6135 30.8661 40.5182 32.3038 39.5435C38.1049 35.6389 44.5357 33.7679 51.5898 34.023C59.7642 34.3188 66.7806 37.2888 72.6519 42.7964C73.0728 43.1909 73.1124 43.6587 72.7686 43.9998C72.4249 44.3409 71.9293 44.3154 71.5074 43.9063C69.5765 42.041 67.385 40.4473 64.9968 39.1707C61.0458 37.0436 56.6447 35.8186 52.13 35.5896C51.5772 35.5598 51.026 35.5859 50.4678 35.5859L50.4674 35.586Z" fill="black" stroke="black" stroke-width="1.44789"/>
<path d="M50.5382 40.1956C57.3423 40.2806 63.2346 42.5462 68.1431 47.1421C68.4693 47.4474 68.5958 47.7861 68.3691 48.1797C68.1607 48.5421 67.8154 48.6229 67.4135 48.5199C67.2553 48.4807 67.1499 48.3753 67.039 48.2709C63.4651 44.8969 59.2226 42.7427 54.2944 42.0241C46.6588 40.9109 39.9675 42.9223 34.2675 47.9869C34.1541 48.0871 34.0452 48.1928 33.9309 48.2931C33.531 48.6451 33.0687 48.6563 32.7434 48.3237C32.4182 47.9911 32.4393 47.5455 32.8191 47.1747C33.51 46.4986 34.2477 45.8692 35.0272 45.2909C39.4518 42.0093 44.452 40.311 50.0267 40.1965C50.2006 40.1922 50.3695 40.1956 50.539 40.1956L50.5382 40.1956Z" fill="black" stroke="black" stroke-width="1.44789"/>
<path d="M50.4999 46.3535C55.4328 46.4386 59.7375 48.0545 63.3626 51.333C63.5632 51.4971 63.7262 51.6997 63.8407 51.9284C64.0015 52.2822 64.0244 52.5866 63.6719 52.8402H63.6722C63.3438 53.0917 62.8726 53.0644 62.5779 52.7765C61.3762 51.5797 59.9815 50.6408 58.4687 49.8542C52.004 46.4929 43.8131 47.6165 38.5711 52.5842C38.1106 53.0203 37.6413 53.068 37.2791 52.716C36.9168 52.3639 36.9705 51.8901 37.4646 51.4403C41.1129 48.0876 45.4647 46.4234 50.5001 46.3535L50.4999 46.3535Z" fill="black" stroke="black" stroke-width="1.44789"/>
<path d="M50.4638 52.5479C53.7389 52.6032 56.5911 53.6781 58.9894 55.8538C59.3077 56.1421 59.5017 56.4577 59.341 56.8795C59.1257 57.4545 58.4348 57.5198 57.9073 57.0232C56.6372 55.8326 55.1587 54.9617 53.4491 54.5252C49.5167 53.5198 46.0282 54.3448 43.0254 57.0186C42.6923 57.3154 42.3461 57.4293 41.9433 57.2091C41.5848 57.0144 41.5101 56.6894 41.598 56.3203C41.641 56.1374 41.7738 56.0081 41.9056 55.8841C44.3068 53.6881 47.1706 52.6031 50.4634 52.5479L50.4638 52.5479Z" fill="black" stroke="black" stroke-width="1.44789"/>
<path d="M50.5336 65.0006C49.6622 65.0115 48.8231 64.6813 48.2069 64.0854C47.5904 63.4891 47.2488 62.6776 47.2595 61.8343C47.2586 60.9933 47.6029 60.1866 48.2173 59.5915C48.8313 58.9962 49.6644 58.6618 50.5336 58.6611C51.4028 58.6608 52.2363 58.9946 52.8513 59.5891C53.4659 60.1835 53.8112 60.99 53.8112 61.831C53.8112 62.6717 53.4659 63.4785 52.8513 64.0729C52.2363 64.6673 51.4029 65.0012 50.5336 65.0006Z" fill="black" stroke="black" stroke-width="1.44789"/>
</svg>
